<?xml version='1.0' encoding='utf-8'?>
<svg xmlns="http://www.w3.org/2000/svg" viewBox="0 0 640 480">
 <g stroke-linecap="round" stroke-linejoin="round">
  <g stroke="#666" stroke-width="2">
   <path d="m562.68 509.2l0.396 16.551s-34.631 7.4955-52.23 7.7626c-21.057 0.31952-41.73-6.0139-62.745-7.3873-10.967-0.71686-32.969-0.4397-32.969-0.4397s-11.062-2.2781-11.045-10.224c0.017242-7.9456 11.322-9.681 11.322-9.681s21.117 1.3145 31.671 0.92258c21.204-0.78742 42.109-7.2918 63.315-6.5676 17.678 0.60367 52.285 9.063 52.285 9.063z" fill="#ccc"/>
   <g fill="#333">
    <path d="m549.05 523.52c-3.4128 2.7485-8.4076 2.2101-11.156-1.2027-2.7486-3.4128-2.2101-8.4076 1.2027-11.156 3.4128-2.7485 8.4076-2.2101 11.156 1.2028 2.7486 3.4128 2.2101 8.4076-1.2027 11.156z"/>
    <path d="m415.88 519.31c-1.8837 1.5171-4.5792 1.2963-6.0205-0.49335s-1.0826-4.4703 0.80118-5.9874c1.8838-1.5172 4.5794-1.2963 6.0207 0.49329s1.0826 4.4703-0.8013 5.9875z"/>
   </g>
  </g>
  <g fill-opacity="0">
   <path d="m379.65 656.16c-2.3419 1.7788-11.395-6.7404-13.804-5.0553-2.4106 1.6851 2.4834 13.112 0.010406 14.702-2.4741 1.5894-10.832-7.6136-13.366-6.1232-2.5344 1.4905 1.4478 13.266-1.1428 14.657-2.5916 1.3895-10.201-8.4401-12.844-7.1526-2.6437 1.2865 0.40176 13.339-2.2898 14.522-2.6926 1.1824-9.5072-9.2145-12.244-8.1382-2.7364 1.0752-0.64551 13.33-3.422 14.297-2.7766 0.96796-8.7546-9.9316-11.567-9.074-2.8124 0.85767-1.6894 13.238-4.5333 13.986-2.8439 0.74628-7.9483-10.588-10.819-9.9545-2.871 0.63495-2.7229 13.066-5.6166 13.587-2.8937 0.52142-7.093-11.18-10.005-10.772-2.912 0.40698-3.7396 12.81-6.6652 13.103-2.9258 0.29248-6.1941-11.701-9.1291-11.523-2.9348 0.17688-4.7331 12.477-7.6728 12.54-2.9396 0.062439-5.2569-12.151-8.1967-12.205-2.9398-0.053101-5.6976 12.068-8.633 11.9-2.9354-0.16864-4.2873-12.525-7.2139-12.81-2.9266-0.28412-6.6269 11.584-9.5401 11.186-2.9132-0.39862-3.2913-12.824-6.1866-13.336-2.8954-0.51312-7.5154 11.029-10.388 10.402-2.8729-0.62549-2.2749-13.043-5.1212-13.78-2.8462-0.73792-8.3574 10.405-11.172 9.5558-2.815-0.8493-1.2447-13.181-4.0242-14.14-2.7795-0.95966-9.148 9.7172-11.888 8.6493-2.7398-1.0679-0.20682-13.238-2.9024-14.412s-9.8822 8.9698-12.53 7.6907c-2.6476-1.2792 0.83255-13.213-1.7627-14.596-2.5953-1.3822-10.556 8.1663-13.094 6.6832-2.539-1.4832 1.8667-13.107-0.61211-14.688-2.4787-1.582-11.164 7.3129-13.578 5.6351-2.4148-1.6778 2.8893-12.921 0.54228-14.691-2.3471-1.7715-11.704 6.4146-13.979 4.5526-2.2763-1.862 3.8937-12.654 1.6934-14.604-2.2014-1.9495-12.17 5.4768-14.293 3.442-2.1233-2.0348 4.8742-12.31 2.8331-14.426-2.0411-2.1159-12.562 4.5048-14.518 2.3096-1.9567-2.194 5.8255-11.888 3.9572-14.158-1.8693-2.2701-12.877 3.5054-14.656 1.1636-1.7777-2.3419 6.7404-11.395 5.0553-13.804-1.6841-2.4105-13.112 2.4834-14.701 0.009399-1.5893-2.4731 7.6137-10.831 6.1232-13.365-1.4915-2.5344-13.267 1.4478-14.657-1.1428-1.3905-2.5917 8.4401-10.201 7.1526-12.845-1.2875-2.6427-13.339 0.40283-14.522-2.2888-1.1834-2.6927 9.2144-9.507 8.1382-12.243-1.0762-2.7363-13.33-0.64636-14.298-3.4222-0.96797-2.7769 9.9316-8.7544 9.0739-11.567-0.85764-2.8123-13.238-1.6903-13.984-4.5338-0.74732-2.8436 10.588-7.9478 9.9534-10.82-0.63491-2.8706-13.064-2.7227-13.586-5.6163-0.52144-2.8935 11.178-7.0933 10.772-10.005-0.40695-2.9112-12.812-3.7387-13.104-6.6645-0.29246-2.9257 11.702-6.195 11.524-9.1291-0.17799-2.9351-12.478-4.7336-12.541-7.673-0.061417-2.9393 12.152-5.2572 12.205-8.1965 0.053082-2.9404-12.068-5.6975-11.9-8.6337 0.1686-2.9351 12.526-4.2872 12.809-7.214 0.28414-2.9258-11.583-6.627-11.185-9.5402 0.3976-2.9123 12.823-3.2911 13.336-6.1867 0.51209-2.8945-11.029-7.5147-10.403-10.387 0.62553-2.8737 13.043-2.2753 13.78-5.1219 0.73794-2.8456-10.404-8.3568-9.5558-11.172 0.84932-2.8144 13.181-1.2448 14.141-4.0238 0.95861-2.7801-9.7172-9.1478-8.6503-11.888 1.0679-2.7395 13.238-0.20608 14.412-2.9019 1.174-2.6957-8.9688-9.8827-7.6896-12.529 1.2792-2.6479 13.213 0.83267 14.596-1.7632 1.3812-2.5948-8.1663-10.555-6.6842-13.095 1.4832-2.5386 13.108 1.8672 14.689-0.61203 1.581-2.4782-7.3128-11.164-5.635-13.579 1.6768-2.4147 12.92 2.8893 14.691 0.54233 1.7705-2.3471-6.4146-11.703-4.5526-13.978 1.861-2.2762 12.653 3.8938 14.603 1.6934 1.9505-2.2014-5.4758-12.17-3.442-14.294 2.0348-2.1222 12.31 4.8752 14.426 2.8341 2.117-2.041-4.5047-12.562-2.3096-14.518 2.1951-1.9568 11.889 5.8255 14.159 3.9572 2.2696-1.8694-3.5055-12.877-1.1636-14.656 2.3413-1.7777 11.395 6.7404 13.804 5.0553 2.4096-1.684-2.4842-13.112-0.010223-14.701 2.474-1.5893 10.831 7.6136 13.366 6.1232 2.5344-1.4915-1.4477-13.267 1.1432-14.657 2.591-1.3905 10.2 8.4401 12.844 7.1526 2.6436-1.2875-0.40228-13.339 2.2897-14.523 2.6921-1.1824 9.5068 9.2144 12.243 8.1393 2.7363-1.0762 0.64552-13.33 3.422-14.298 2.7765-0.96796 8.7545 9.9316 11.567 9.0739 2.8124-0.8576 1.6894-13.238 4.5333-13.984 2.8438-0.74731 7.9483 10.588 10.819 9.9534 2.871-0.63489 2.7229-13.066 5.6166-13.586 2.8937-0.52142 7.093 11.178 10.005 10.772 2.9119-0.40698 3.7395-12.812 6.6652-13.104 2.9257-0.29242 6.1941 11.701 9.129 11.524 2.9349-0.17801 4.7332-12.478 7.6728-12.541 2.9397-0.061401 5.2569 12.152 8.1967 12.205 2.9398 0.05307 5.6976-12.068 8.6332-11.9 2.9354 0.16861 4.2873 12.526 7.2139 12.81 2.9266 0.28412 6.6269-11.583 9.5401-11.186 2.9132 0.39865 3.2913 12.824 6.1866 13.337 2.8953 0.51208 7.5154-11.029 10.388-10.403 2.873 0.62555 2.2751 13.043 5.1212 13.78 2.8462 0.73798 8.3575-10.405 11.172-9.5558 2.815 0.84934 1.2447 13.181 4.0242 14.141 2.7794 0.95856 9.148-9.7172 11.888-8.6503 2.7402 1.0679 0.2067 13.238 2.9026 14.412 2.6957 1.174 9.8816-8.9688 12.529-7.6896 2.6479 1.2792-0.83264 13.213 1.7632 14.596 2.5948 1.3812 10.555-8.1663 13.094-6.6842 2.5396 1.4832-1.8662 13.107 0.61304 14.689 2.4782 1.581 11.163-7.3128 13.578-5.6361 2.4147 1.6778-2.8893 12.921-0.54227 14.692 2.347 1.7704 11.703-6.4146 13.979-4.5526 2.2752 1.861-3.8948 12.653-1.6934 14.603 2.2014 1.9505 12.17-5.4758 14.293-3.442 2.1233 2.0348-4.8752 12.31-2.8331 14.426 2.0411 2.117 12.562-4.5047 14.518-2.3096 1.9568 2.1951-5.8255 11.889-3.9572 14.159 1.8694 2.2701 12.877-3.5055 14.656-1.1636 1.7777 2.3408-6.7404 11.395-5.0563 13.804 1.6851 2.4095 13.112-2.4845 14.702-0.010437 1.5894 2.4741-7.6136 10.831-6.1232 13.365 1.4905 2.5344 13.268-1.4478 14.657 1.1439 1.3905 2.5906-8.4401 10.2-7.1526 12.844 1.2875 2.6437 13.339-0.40277 14.522 2.2898 1.1824 2.6916-9.2144 9.507-8.1382 12.243 1.0762 2.7364 13.33 0.64532 14.298 3.4223 0.96692 2.7759-9.9326 8.7544-9.075 11.567 0.85867 2.8124 13.239 1.6892 13.986 4.5328 0.74628 2.8446-10.588 7.9488-9.9534 10.819 0.63388 2.8717 13.064 2.7228 13.586 5.6163 0.52145 2.8945-11.18 7.0932-10.772 10.006 0.40695 2.9122 12.81 3.7397 13.104 6.6655 0.29248 2.9257-11.702 6.1939-11.524 9.1291 0.17798 2.9351 12.478 4.7326 12.54 7.673 0.062439 2.9393-12.151 5.2562-12.204 8.1965-0.053101 2.9393 12.068 5.6975 11.9 8.6326-0.16864 2.9351-12.526 4.2871-12.81 7.214-0.28311 2.9268 11.584 6.627 11.186 9.5402-0.39862 2.9133-12.824 3.2911-13.336 6.1866-0.51208 2.8956 11.029 7.5158 10.403 10.388-0.62659 2.8727-13.043 2.2752-13.78 5.1208-0.73898 2.8467 10.404 8.3578 9.5548 11.172-0.8493 2.8155-13.181 1.2448-14.14 4.0249-0.95862 2.779 9.7172 9.1478 8.6493 11.887-1.0668 2.7394-13.237 0.20715-14.412 2.9029-1.1741 2.6947 8.9698 9.8816 7.6907 12.529-1.2792 2.6468-13.213-0.83264-14.596 1.7622-1.3822 2.5958 8.1663 10.556 6.6831 13.095-1.4822 2.5396-13.107-1.8662-14.688 0.612-1.5821 2.4792 7.3129 11.164 5.635 13.579-1.6778 2.4147-12.92-2.8893-14.691-0.54224-1.7715 2.347 6.4146 11.703 4.5526 13.979-1.862 2.2753-12.653-3.8948-14.604-1.6934-1.9495 2.2003 5.4768 12.17 3.442 14.293-2.0348 2.1222-12.309-4.8752-14.426-2.8342-2.116 2.041 4.5047 12.563 2.3106 14.52-2.1951 1.9557-11.889-5.8266-14.159-3.9572-2.27 1.8682 3.5055 12.877 1.1636 14.655z" stroke="#333" stroke-width="30.119"/>
   <path d="m435.36 485.44c0 102.37-82.99 185.36-185.36 185.36s-185.36-82.99-185.36-185.36 82.99-185.36 185.36-185.36 185.36 82.99 185.36 185.36z" stroke="#b3b3b3" stroke-width="14.812"/>
  </g>
  <g fill="#ccc" stroke="#666">
   <path d="m281.24 510.22l-0.0864 5.3536-5.3478 0.2657-1.1293 5.2341-5.2972-0.7831-2.1291 4.9135-5.0422-1.802-3.0468 4.4037-4.5938-2.7504-3.8473 3.7244-3.9693-3.594-4.4992 2.9023-3.1921-4.299-4.98 1.9689-2.2911-4.8397-5.2681 0.96-1.3037-5.1934-5.3536-0.0872-0.2657-5.3478-5.2341-1.1293 0.7831-5.2972-4.9127-2.1291 1.8011-5.0423-4.4037-3.0468 2.7503-4.5938-3.7244-3.8473 3.594-3.9685-2.9023-4.5 4.299-3.1921-1.9689-4.9792 4.8396-2.2919-0.9591-5.2681 5.1934-1.3038 0.0863-5.3536 5.3478-0.2657 1.1294-5.2341 5.2972 0.7831 2.1292-4.9127 5.0422 1.8012 3.0468-4.4036 4.5938 2.7511 3.8473-3.7253 3.9694 3.594 4.4991-2.9023 3.1921 4.299 4.9791-1.9681 2.2919 4.8388 5.2681-0.9591 1.3037 5.1933 5.3536 0.0864 0.2657 5.3478 5.2341 1.1302-0.7831 5.2963 4.9127 2.1292-1.8012 5.0422 4.4037 3.0468-2.7503 4.5938 3.7244 3.8473-3.594 3.9693 2.9023 4.5-4.299 3.1913 1.9681 4.9799-4.8388 2.2911 0.9591 5.2681-5.1934 1.3037z" stroke-width="4"/>
   <path d="m265.9 517.12l-4.7681-1.0436-2.9955 3.8524-4.3972-2.1147-3.8035 3.0593-3.7923-3.0731-4.4048 2.0996-2.9817-3.8636-4.7706 1.0261-2.0107-4.4462-4.8797-0.1014-0.9296-4.792-4.7243-1.2227 0.2005-4.8771-4.3159-2.2801 1.3192-4.698-3.6719-3.2146 2.3665-4.2683-2.8325-3.9738 3.2873-3.6068-1.839-4.5201 4.0302-2.7523-0.7467-4.822 4.5564-1.7476 0.3846-4.8658 4.837-0.6502 1.4959-4.6441 4.857 0.4823 2.5269-4.1743 4.614 1.5898 3.4226-3.4803 4.123 2.6121 4.1317-2.597 3.4102 3.4915 4.619-1.5735 2.5131 4.1843 4.8583-0.4661 1.4796 4.6504 4.8345 0.6665 0.3671 4.8671 4.5514 1.7639-0.7655 4.8195 4.0215 2.7662-1.8554 4.5138 3.2748 3.6193-2.8476 3.9638 2.3527 4.2758-3.6844 3.2009 1.3029 4.7043-4.3234 2.265 0.1829 4.8759-4.7292 1.2077-0.9472 4.7869-4.8795 0.0839-2.0246 4.4412z" stroke-width="2.634"/>
   <path d="m253.43 515.94l-4.0789-3.4942-4.2527 3.2785-2.9849-4.4648-4.98 2.0083-1.6692-5.1035-5.3371 0.5908-0.2301-5.3659-5.2988-0.8711 1.2258-5.2281-4.8674-2.2696 2.5919-4.7032-4.0754-3.4978 3.765-3.8297-2.9813-4.4684 4.6589-2.6721-1.6644-5.1059 5.2065-1.3169-0.2253-5.3647 5.3683 0.1366 1.2307-5.2281 5.1334 1.5805 2.5955-4.7009 4.5151 2.9059 3.7686-3.8261 3.5637 4.0166 4.6601-2.6685 2.3486 4.8302 5.2077-1.3121 0.9586 5.2844 5.3683 0.1414-0.5033 5.3467 5.131 1.5841-1.9268 5.0124 4.5139 2.9106-3.2078 4.3079 3.5601 4.019-4.2503 3.2821 2.3438 4.8315-4.9789 2.0143 0.9538 5.2844-5.3372 0.5956-0.5081 5.3468-5.3-0.8676-1.9304 5.0112-4.8698-2.2648-3.2114 4.3042z" stroke-width="2.754"/>
   <path d="m262.29 506.73l-4.7003-1.0066-2.8485 3.8727-4.1194-2.4791-3.9516 2.737-3.0914-3.6812-4.6265 1.306-1.7279-4.4862-4.8005-0.2679-0.1778-4.803-4.4524-1.8118 1.3911-4.6014-3.6236-3.1591 2.8097-3.9002-2.4003-4.1644 3.924-2.7772-0.919-4.7179 4.6127-1.3522 0.6636-4.7617 4.8018 0.2191 2.1724-4.2871 4.4712 1.7667 3.447-3.3506 3.6549 3.1227 4.3498-2.0496 2.4428 4.1407 4.778-0.5259 0.9666 4.7092 4.6903 1.053-0.616 4.7679 4.0943 2.5193-2.1298 4.3096 3.0538 3.7125-3.4132 3.3844 1.6828 4.5038-4.3272 2.0923 0.129 4.8055-4.7717 0.5748-1.4387 4.5864z" stroke-width="2.636"/>
  </g>
  <g fill-opacity="0">
   <path d="m1133.6 656.16c-2.3419 1.7788-11.395-6.7404-13.805-5.0553-2.4105 1.6851 2.4835 13.112 0.010498 14.702-2.4741 1.5894-10.832-7.6136-13.366-6.1232-2.5344 1.4905 1.4478 13.266-1.1428 14.657-2.5917 1.3895-10.201-8.4401-12.844-7.1526-2.6437 1.2865 0.40186 13.339-2.2898 14.522-2.6926 1.1824-9.5072-9.2145-12.244-8.1382-2.7364 1.0752-0.64551 13.33-3.422 14.297-2.7766 0.96796-8.7546-9.9316-11.567-9.074-2.8125 0.85767-1.6896 13.238-4.5333 13.986-2.844 0.74628-7.9484-10.588-10.819-9.9545-2.871 0.63495-2.7229 13.066-5.6166 13.587-2.8938 0.52142-7.0931-11.18-10.005-10.772-2.912 0.40698-3.7396 12.81-6.6653 13.103-2.9257 0.29248-6.194-11.701-9.129-11.523-2.9348 0.17688-4.7331 12.477-7.6728 12.54-2.9396 0.062439-5.2569-12.151-8.1967-12.205-2.9398-0.053101-5.6976 12.068-8.6331 11.9-2.9354-0.16864-4.2874-12.525-7.2139-12.81-2.9266-0.28412-6.627 11.584-9.5401 11.186-2.9132-0.39862-3.2913-12.824-6.1866-13.336-2.8954-0.51312-7.5154 11.029-10.388 10.402-2.8729-0.62549-2.275-13.043-5.1212-13.78-2.8461-0.73792-8.3574 10.405-11.172 9.5558-2.815-0.8493-1.2448-13.181-4.0242-14.14-2.7795-0.95966-9.148 9.7172-11.888 8.6493-2.7398-1.0679-0.20679-13.238-2.9025-14.412-2.6956-1.174-9.8822 8.9698-12.53 7.6907-2.6475-1.2792 0.83258-13.213-1.7626-14.596-2.5953-1.3822-10.556 8.1663-13.094 6.6832-2.539-1.4832 1.8667-13.107-0.61212-14.688-2.4787-1.582-11.164 7.3129-13.578 5.6351-2.4148-1.6778 2.8893-12.921 0.5423-14.691-2.347-1.7715-11.704 6.4146-13.979 4.5526-2.2763-1.862 3.8937-12.654 1.6934-14.604-2.2014-1.9495-12.17 5.4768-14.293 3.442-2.1233-2.0348 4.8742-12.31 2.8331-14.426-2.0411-2.1159-12.562 4.5048-14.518 2.3096-1.9568-2.194 5.8255-11.888 3.9572-14.158-1.8693-2.2701-12.877 3.5054-14.656 1.1636-1.7777-2.3419 6.7404-11.395 5.0553-13.804-1.684-2.4105-13.112 2.4834-14.701 0.009399-1.5894-2.4731 7.6136-10.831 6.1232-13.365-1.4915-2.5344-13.267 1.4478-14.657-1.1428-1.3906-2.5917 8.4401-10.201 7.1526-12.845-1.2875-2.6427-13.339 0.40283-14.522-2.2888-1.1834-2.6927 9.2145-9.507 8.1382-12.243-1.0762-2.7363-13.33-0.64636-14.298-3.4222-0.96796-2.7769 9.9316-8.7544 9.074-11.567-0.85767-2.8123-13.238-1.6903-13.985-4.5338-0.74731-2.8436 10.588-7.9478 9.9534-10.82-0.63495-2.8706-13.064-2.7227-13.586-5.6163-0.52142-2.8935 11.178-7.0933 10.772-10.005-0.40698-2.9112-12.812-3.7387-13.104-6.6645-0.29242-2.9257 11.702-6.195 11.524-9.1291-0.17798-2.9351-12.478-4.7336-12.541-7.673-0.061401-2.9393 12.152-5.2572 12.205-8.1965 0.053101-2.9404-12.068-5.6975-11.9-8.6337 0.16864-2.9351 12.526-4.2872 12.809-7.214 0.28418-2.9258-11.583-6.627-11.185-9.5402 0.39758-2.9123 12.823-3.2911 13.336-6.1867 0.51208-2.8945-11.029-7.5147-10.403-10.387 0.62555-2.8737 13.043-2.2753 13.78-5.1219 0.73798-2.8456-10.404-8.3568-9.5558-11.172 0.8493-2.8144 13.181-1.2448 14.141-4.0238 0.95862-2.7801-9.7171-9.1478-8.6503-11.888 1.0679-2.7395 13.238-0.20608 14.412-2.9019 1.174-2.6957-8.9688-9.8827-7.6896-12.529 1.2791-2.6479 13.213 0.83267 14.596-1.7632 1.3812-2.5948-8.1663-10.555-6.6842-13.095 1.4832-2.5386 13.108 1.8672 14.689-0.61203 1.581-2.4782-7.3128-11.164-5.635-13.579 1.6768-2.4147 12.92 2.8893 14.691 0.54233 1.7704-2.3471-6.4146-11.703-4.5526-13.978 1.861-2.2762 12.653 3.8938 14.603 1.6934 1.9505-2.2014-5.4758-12.17-3.442-14.294 2.0348-2.1222 12.31 4.8752 14.426 2.8341 2.1171-2.041-4.5047-12.562-2.3096-14.518 2.1951-1.9568 11.889 5.8255 14.159 3.9572 2.2696-1.8694-3.5055-12.877-1.1636-14.656 2.3414-1.7777 11.395 6.7404 13.804 5.0553 2.4096-1.684-2.4841-13.112-0.010193-14.701 2.4739-1.5893 10.831 7.6136 13.366 6.1232 2.5344-1.4915-1.4477-13.267 1.1432-14.657 2.5911-1.3905 10.2 8.4401 12.844 7.1526 2.6436-1.2875-0.40228-13.339 2.2897-14.523 2.6921-1.1824 9.5068 9.2144 12.243 8.1393 2.7364-1.0762 0.64557-13.33 3.4221-14.298 2.7765-0.96796 8.7545 9.9316 11.567 9.0739 2.8124-0.8576 1.6894-13.238 4.5333-13.984 2.8439-0.74731 7.9483 10.588 10.819 9.9534 2.871-0.63489 2.7229-13.066 5.6166-13.586 2.8937-0.52142 7.093 11.178 10.005 10.772 2.9119-0.40698 3.7395-12.812 6.6652-13.104 2.9257-0.29242 6.1941 11.701 9.129 11.524 2.9349-0.17801 4.7332-12.478 7.6728-12.541 2.9397-0.061401 5.2569 12.152 8.1967 12.205 2.9398 0.05307 5.6976-12.068 8.6331-11.9 2.9355 0.16861 4.2873 12.526 7.2139 12.81 2.9266 0.28412 6.627-11.583 9.5402-11.186 2.9131 0.39865 3.2913 12.824 6.1865 13.337 2.8953 0.51208 7.5154-11.029 10.388-10.403 2.873 0.62555 2.275 13.043 5.1212 13.78 2.8462 0.73798 8.3575-10.405 11.172-9.5558 2.8151 0.84934 1.2448 13.181 4.0243 14.141 2.7794 0.95856 9.1481-9.7172 11.888-8.6503 2.7402 1.0679 0.20666 13.238 2.9026 14.412 2.6957 1.174 9.8816-8.9688 12.529-7.6896 2.648 1.2792-0.83264 13.213 1.7632 14.596 2.5948 1.3812 10.555-8.1663 13.094-6.6842 2.5396 1.4832-1.8662 13.107 0.61304 14.689 2.4782 1.581 11.163-7.3128 13.578-5.6361 2.4147 1.6778-2.8894 12.921-0.54236 14.692 2.3472 1.7704 11.703-6.4146 13.979-4.5526 2.2753 1.861-3.8948 12.653-1.6934 14.603 2.2013 1.9505 12.17-5.4758 14.293-3.442 2.1233 2.0348-4.8752 12.31-2.8331 14.426 2.041 2.117 12.562-4.5047 14.518-2.3096 1.9568 2.1951-5.8254 11.889-3.9572 14.159 1.8693 2.2701 12.877-3.5055 14.656-1.1636 1.7777 2.3408-6.7404 11.395-5.0564 13.804 1.6852 2.4095 13.112-2.4845 14.702-0.010437 1.5892 2.4741-7.6136 10.831-6.1233 13.365 1.4905 2.5344 13.268-1.4478 14.657 1.1439 1.3905 2.5906-8.4401 10.2-7.1526 12.844 1.2875 2.6437 13.339-0.40277 14.522 2.2898 1.1824 2.6916-9.2144 9.507-8.1382 12.243 1.0762 2.7364 13.33 0.64532 14.298 3.4223 0.96692 2.7759-9.9326 8.7544-9.075 11.567 0.85864 2.8124 13.239 1.6892 13.986 4.5328 0.74622 2.8446-10.588 7.9488-9.9535 10.819 0.63391 2.8717 13.064 2.7228 13.586 5.6163 0.52148 2.8945-11.18 7.0932-10.772 10.006 0.40698 2.9122 12.81 3.7397 13.104 6.6655 0.29248 2.9257-11.702 6.1939-11.524 9.1291 0.17798 2.9351 12.478 4.7326 12.54 7.673 0.062378 2.9393-12.151 5.2562-12.204 8.1965-0.053101 2.9393 12.068 5.6975 11.9 8.6326-0.16858 2.9351-12.526 4.2871-12.81 7.214-0.28308 2.9268 11.584 6.627 11.186 9.5402-0.39868 2.9133-12.824 3.2911-13.336 6.1866-0.51208 2.8956 11.029 7.5158 10.403 10.388-0.62659 2.8727-13.042 2.2752-13.78 5.1208-0.73901 2.8467 10.404 8.3578 9.5548 11.172-0.84924 2.8155-13.181 1.2448-14.14 4.0249-0.95862 2.779 9.7172 9.1478 8.6493 11.887-1.0669 2.7394-13.237 0.20715-14.412 2.9029-1.1741 2.6947 8.9698 9.8816 7.6907 12.529-1.2792 2.6468-13.213-0.83264-14.596 1.7622-1.3822 2.5958 8.1663 10.556 6.6831 13.095-1.4822 2.5396-13.107-1.8662-14.688 0.612-1.582 2.4792 7.3129 11.164 5.635 13.579-1.6779 2.4147-12.92-2.8893-14.691-0.54224-1.7715 2.347 6.4147 11.703 4.5526 13.979-1.8621 2.2753-12.653-3.8948-14.604-1.6934-1.9495 2.2003 5.4768 12.17 3.442 14.293-2.0348 2.1222-12.309-4.8752-14.426-2.8342-2.116 2.041 4.5048 12.563 2.3107 14.52-2.1951 1.9557-11.889-5.8266-14.159-3.9572-2.27 1.8682 3.5055 12.877 1.1637 14.655z" stroke="#333" stroke-width="30.119"/>
   <path d="m1189.4 485.44c0 102.37-82.99 185.36-185.36 185.36s-185.36-82.99-185.36-185.36 82.99-185.36 185.36-185.36 185.36 82.99 185.36 185.36z" stroke="#b3b3b3" stroke-width="14.812"/>
  </g>
  <g stroke="#000" stroke-width="2">
   <path d="m1020.2 485.44c0 8.9595-7.2632 16.223-16.222 16.223-8.9596 0-16.223-7.2631-16.223-16.223 0-8.9595 7.2632-16.223 16.223-16.223 8.9594 0 16.222 7.2631 16.222 16.223z" fill="#b3b3b3"/>
   <g fill="#f00">
    <path d="m809.6 129.56l28.755 81.036 30.062-11.763-30.062-79.73-28.755 10.456z"/>
    <path d="m442.32 215.82l24.18-6.5352 79.432 291.67s-8.9086 0.57251-12.417 2.9833c-3.5328 2.4277-7.2872 10.596-7.2872 10.596l-83.908-298.71z"/>
    <path d="m470.42 223.67l341.79-84.958s5.6896 2.0889 7.1094 6.7662c1.6406 5.4045-1.8813 10.879-1.8813 10.879l-20.913 16.338-316.96 79.73s-9.2895-0.76562-12.417-11.994c-3.5558-12.767 3.2676-16.76 3.2676-16.76z"/>
    <path d="m817.84 156.38l-22.181 16.636-253.7 311.92 3.855 15.982s8.731 2.596 11.427 5.935c2.849 3.529 3.585 13.124 3.585 13.124l245-300.75 27.727-21.257s-0.80102-19.171-4.622-27.727c-2.412-5.404-11.09-13.863-11.09-13.863z"/>
   </g>
   <path d="m560.26 517.59c0 9.1022-7.3788 16.481-16.481 16.481s-16.481-7.3788-16.481-16.481 7.3788-16.481 16.481-16.481 16.481 7.3788 16.481 16.481z" fill="#000080"/>
   <path d="m442.98 214.52l-50.975-172.53 23.527-1.9606 49.014 168.28-21.566 6.2084z" fill="#4d4d4d"/>
   <path transform="rotate(-3.2985 412.45 38.086)" d="m315.63 25.139c4.5938-10.588 16.205-6.1556 24.485-6.5194 9.5261-0.41853 18.921 3.5503 28.403 5.0149 12.607 1.9473 25.207 4.3584 37.87 5.0149 11.748 0.60911 23.506-1.3491 35.259-1.003 13.404 0.39469 26.876 0.68236 40.156 3.5104 5.9628 1.2698 12.231 1.9269 17.629 6.0179 3.9486 2.9922 10.273 6.2794 10.12 13.039-0.051117 2.2723-2.111 4.0263-3.5912 4.0119-10.48-0.1022-20.16-5.7641-30.362-7.0209-10.197-1.2562-20.462-0.91271-30.688-0.50148-12.099 0.48649-24.202 1.5498-36.238 3.5104-9.5194 1.5507-18.871 5.1586-28.403 6.5194-5.8552 0.83594-11.794 2.1148-17.629 1.003-8.0997-1.543-15.71-6.8199-23.506-10.531-7.3302-3.4896-19.319-4.3216-21.874-11.033-1.2392-3.2558-2.9939-7.8945-1.6323-11.033v1e-5z"/>
   <path d="m877.92 246.3l32.628 83.796 26.205-10.437-33.011-83.582-25.822 10.222z" fill="#d3bc5f"/>
   <g fill="#333">
    <path d="m838.17 210.9l31.423-11.091 5.5453 6.4695 19.904-0.3828 11.034 30.714-30.014 11.586-11.091-20.66-23.105-5.5453-3.6969-11.091z"/>
    <path d="m903.33 319.5l31.886-12.477 65.619 172.83 15.019 1.6174 5.3142 11.322-42.514 15.25-75.324-188.54z"/>
   </g>
   <path d="m917.35 51.137l13.391 19.923-6.8588 13.718-11.105-4.246 0.9799 5.2258-9.1451 9.4717-12.738-1.6331-12.085-9.4717-7.8387 1.9597-5.879-5.5524 51.278-29.395z" fill="#d3bc5f"/>
   <path d="m908.7 36.33l-20.324 12.471s-2.3594 7.6482 0.69287 12.702c4.0291 6.6716 10.624 7.1594 10.624 7.1594l23.788-10.162-14.781-22.171z" fill="#808080"/>
   <g fill="#1a1a1a">
    <path d="m809.6 128.91l0.9803-11.11-11.11-35.29s4.0447-4.2227 9.4761-5.8817c6.6256-2.0238 11.11-0.98029 11.11-0.98029l1.307 2.9408 67.313-29.408s-2.0356 7.579 0.32672 11.763c2.9291 5.1881 10.13 7.5155 10.13 7.5155l-69.273 32.349 2.6141 9.1493 6.2084 9.1493-29.082 9.8028z"/>
    <path d="m929.85 47.216c0 7.5795-6.1444 13.724-13.724 13.724-7.5795 0-13.724-6.1444-13.724-13.724 0-7.5795 6.1444-13.724 13.724-13.724 7.5795 0 13.724 6.1444 13.724 13.724z"/>
   </g>
   <g fill="#333">
    <path d="m926.82 72.694l-4.8992 8.1652s10.918 2.3545 16.004 4.5726c4.4326 1.9334 12.411 7.5121 12.411 7.5121l4.8992-5.879s-6.7523-6.321-10.778-8.4919c-5.4545-2.9412-17.637-5.879-17.637-5.879z"/>
    <path d="m297.38 557.58c-0.69132 0.3988-3.1468-0.96533-3.9178-0.75891-0.771 0.2063-2.217 2.6144-3.0151 2.6143-0.79813-3.66e-4 -2.2426-2.4093-3.0135-2.6162-0.77084-0.20679-3.2272 1.1556-3.9182 0.75647-0.69107-0.39929-0.73749-3.2079-1.3017-3.7725-0.56418-0.56458-3.3727-0.61279-3.7715-1.3041-0.39886-0.69128 0.96524-3.1467 0.75891-3.9177s-2.6145-2.217-2.6142-3.0151c2.44e-4 -0.7981 2.4093-2.2426 2.6161-3.0134 0.20682-0.77087-1.1557-3.2272-0.75641-3.9183s3.2078-0.73749 3.7724-1.3016c0.56454-0.56421 0.61273-3.3727 1.3041-3.7716 0.69132-0.3988 3.1468 0.96527 3.9178 0.75885 0.771-0.2063 2.217-2.6144 3.0151-2.6142 0.79813 3.05e-4 2.2426 2.4094 3.0135 2.6162 0.77084 0.20679 3.2272-1.1557 3.9183-0.75641 0.69104 0.39923 0.73746 3.2078 1.3016 3.7723 0.56418 0.56458 3.3727 0.61279 3.7715 1.3041 0.39886 0.69128-0.96524 3.1468-0.75891 3.9178s2.6145 2.217 2.6142 3.0151c-2.44e-4 0.7981-2.4093 2.2426-2.6161 3.0134-0.20682 0.77087 1.1557 3.2272 0.75641 3.9182-0.39929 0.69116-3.2078 0.73755-3.7724 1.3018-0.56454 0.56409-0.61273 3.3727-1.3041 3.7715z"/>
    <path d="m241.95 606.54c-0.69132 0.3988-3.1468-0.96533-3.9178-0.75891-0.771 0.2063-2.217 2.6144-3.0151 2.6143-0.79814-3.66e-4 -2.2426-2.4093-3.0135-2.6162-0.77086-0.20679-3.2272 1.1556-3.9183 0.75647-0.69107-0.39929-0.73747-3.2079-1.3016-3.7725-0.56418-0.56458-3.3727-0.61279-3.7715-1.3041-0.39885-0.69128 0.96524-3.1467 0.75893-3.9177-0.20633-0.771-2.6145-2.217-2.6142-3.0151 2.44e-4 -0.7981 2.4093-2.2426 2.6161-3.0134 0.20682-0.77087-1.1557-3.2272-0.75641-3.9183 0.39928-0.6911 3.2078-0.73749 3.7724-1.3016 0.56453-0.56421 0.61273-3.3727 1.3041-3.7716 0.69133-0.3988 3.1468 0.96527 3.9178 0.75885 0.771-0.2063 2.217-2.6144 3.0151-2.6142 0.79813 3.05e-4 2.2426 2.4094 3.0134 2.6162 0.77086 0.20679 3.2272-1.1557 3.9183-0.75641 0.69106 0.39923 0.73746 3.2078 1.3016 3.7723 0.56418 0.56458 3.3727 0.61279 3.7715 1.3041 0.39885 0.69128-0.96524 3.1468-0.75891 3.9178 0.20631 0.771 2.6145 2.217 2.6142 3.0151-2.59e-4 0.7981-2.4093 2.2426-2.6161 3.0134-0.20682 0.77087 1.1557 3.2272 0.75641 3.9182-0.39928 0.69116-3.2078 0.73755-3.7724 1.3018-0.56453 0.56409-0.61273 3.3727-1.3041 3.7715z"/>
   </g>
   <path d="m450.17 243.93l-188.21 201.94-25.296 41.158v10.456l19.606 1.5778 18.761-44.696 180.37-193.44s1.5581-6.9942 0.46213-10.225c-0.94669-2.7908-5.6903-6.7662-5.6903-6.7662z" fill="#f00"/>
   <g fill="#ccc">
    <path d="m257.92 495.33l-5.879 25.149s-1.3793 6.1987-10.125 5.5524c-7.4323-0.54926-7.8386-8.4919-7.8386-8.4919l2.2863-24.496s3.9509-9.438 11.758-8.1653c7.8071 1.2728 9.7983 10.452 9.7983 10.452z"/>
    <path d="m246.11 612.09s-13.174-0.97156-18.938-5.5428c-5.7637-4.5713-12.009-21.247-12.009-21.247s5.1735 2.081 7.8522 1.8476c12.85-1.1195 25.406-8.645 35.566-15.243 10.16-6.5977 24.131-11.793 24.942-23.095 0.29785-4.1493-7.8523-9.6999-7.8523-9.6999l-1.8476 3.2333s-42.965 4.155-44.342 0c-3.0781-9.2895 6.4666-28.638 6.4666-28.638s5.2875-7.7236 11.547-4.157c5.9081 3.3661 4.619 10.162 4.619 10.162l-0.4619 4.157s19.171-3.097 27.252-0.46191c8.0808 2.6351 18.938 14.319 18.938 14.319v17.552s-23.799 17.426-32.795 22.633c-8.9961 5.207-20.324 9.6998-20.324 9.6998l1.3857 24.481z"/>
   </g>
   <path d="m432.62 213.1c15.684-4.5746 31.369-9.1493 47.054-13.724-0.21783 3.7033-0.43567 7.4066-0.6535 11.11-14.378 4.3568-28.755 8.7136-43.132 13.07-1.0892-3.4854-2.1784-6.9709-3.2676-10.456z" fill="#b3b3b3"/>
  </g>
  <g stroke="#666">
   <g fill="#ccc">
    <path d="m543.3 454.82l4.2385-2.4962 3.9214 2.9689 4.5276-1.9205 3.5002 3.4554 4.7388-1.3141 3.0195 3.8825 4.8704-0.6837 2.4865 4.2446 4.9186-0.0435 1.9102 4.5326 4.8827 0.6001 1.3032 4.7429 4.7613 1.2326 0.673 4.871 4.5607 1.844 0.0302 4.918 4.282 2.4223-0.6113 4.8807 3.9276 2.9606-1.2427 4.7584 3.507 3.4483-1.8531 4.5553 3.0282 3.8771-2.4332 4.2747 2.4962 4.2385-2.9688 3.9216 1.9213 4.5268-3.4553 3.5 1.3132 4.7397-3.8826 3.0196 0.6837 4.8705-4.2436 2.4858 0.0418 4.9183-4.5319 1.9111-0.6001 4.8828-4.7429 1.303-1.2316 4.7607-4.8719 0.6736-1.8431 4.5599-4.9189 0.0311-2.4233 4.281-4.8789-0.6111-2.9615 3.9283-4.7585-1.2428-3.4482 3.5071-4.5552-1.8533-3.8764 3.0275-4.2756-2.4323-4.2384 2.496-3.9205-2.9695-4.5278 1.9222-3.5009-3.4564-4.7388 1.3141-3.0186-3.8833-4.8714 0.6844-2.4866-4.2444-4.9175 0.0427-1.911-4.5319-4.8829-0.5999-1.303-4.7431-4.7614-1.2325-0.6729-4.871-4.56-1.843-0.0309-4.919-4.281-2.4231 0.6104-4.8799-3.9277-2.9606 1.2437-4.7593-3.508-3.4475 1.8532-4.5552-3.0282-3.8772 2.4331-4.2747-2.4961-4.2384 2.9689-3.9215-1.9204-4.5276 3.4553-3.5001-1.3141-4.7389 3.8832-3.0186-0.6844-4.8715 4.2445-2.4865-0.0427-4.9176 4.5328-1.9119 0.599-4.882 4.7431-1.303 1.2325-4.7614 4.872-0.6737 1.8432-4.5599 4.9178-0.0302 2.4232-4.2809 4.8799 0.6103 2.9606-3.9278 4.7593 1.2438 3.4474-3.5081 4.5561 1.8525 3.8764-3.0274 4.2745 2.4332z" stroke-width="2.647"/>
    <path d="m543.4 468.75l4.2019-2.4123 3.7936 3.0139 4.5423-1.687 3.2453 3.5976 4.7579-0.9166 2.609 4.0824 4.844-0.1211 1.901 4.4566 4.7982 0.6775 1.1412 4.7088 4.6209 1.4577 0.3515 4.8333 4.3181 2.1981-0.4491 4.8243 3.8967 2.8794-1.2362 4.6853 3.3694 3.4813-1.9913 4.4171 2.7513 3.9892-2.6911 4.029 2.0573 4.3872-3.3177 3.5318 1.3074 4.6655-3.8546 2.9372 0.5215 4.817-4.2839 2.2634-0.2792 4.8371-4.5993 1.5269-1.0707 4.7254-4.787 0.749-1.835 4.4849-4.8453-0.0489-2.5471 4.1219-4.7712-0.8464-3.1916 3.6465-4.5664-1.6198-3.748 3.0713-4.2379-2.3495-4.2018 2.4123-3.793-3.0145-4.5429 1.6876-3.2448-3.5981-4.7579 0.9178-2.6089-4.0836-4.8441 0.1212-1.9016-4.456-4.7974-0.6781-1.142-4.7083-4.621-1.4576-0.3513-4.8333-4.3175-2.1986 0.449-4.8243-3.8975-2.8788 1.2369-4.6844-3.3701-3.482 1.9914-4.4171-2.7514-3.9891 2.6912-4.0291-2.0574-4.3871 3.3178-3.5319-1.306-4.6654 3.8532-2.9373-0.521-4.8175 4.2847-2.2628 0.2786-4.8379 4.5986-1.5262 1.0713-4.7258 4.7872-0.7492 1.8342-4.4842 4.8452 0.0489 2.5472-4.1218 4.771 0.8465 3.1916-3.6465 4.5664 1.6197 3.7479-3.0712 4.238 2.3494z" stroke-width="3.371"/>
    <path d="m543.5 482l4.2742-2.86 3.5859 3.686 4.8038-1.837 2.6761 4.3914 5.0919-0.7224 1.6315 4.877 5.1246 0.429 0.5057 5.1183 4.9009 1.5586-0.6456 5.1018 4.431 2.6099-1.765 4.8311 3.7396 3.5301-2.7957 4.3164 2.8601 4.2744-3.6866 3.5863 1.8376 4.8033-4.392 2.6765 0.7224 5.092-4.8768 1.6315-0.4291 5.1247-5.1183 0.5057-1.5586 4.9009-5.1018-0.6457-2.61 4.4311-4.8305-1.7654-3.5307 3.74-4.3169-2.7962-4.2743 2.8601-3.5859-3.6861-4.8033 1.8376-2.676-4.3925-5.0919 0.7223-1.6315-4.8768-5.1253-0.4286-0.5057-5.1183-4.9008-1.5587 0.6462-5.1022-4.4316-2.6094 1.7654-4.8306-3.7396-3.5311 2.7958-4.3165-2.8601-4.2743 3.6861-3.5858-1.837-4.8038 4.3914-2.6761-0.7218-5.0913 4.8775-1.6321 0.4285-5.1251 5.1176-0.5052 1.5587-4.9008 5.1018 0.6456 2.61-4.4311 4.8311 1.765 3.5306-3.739 4.3164 2.7957z" stroke-width="4.49"/>
   </g>
   <g stroke-width="2">
    <path d="m521.26 494.94c15.992-16.097-0.24481 3.399 22.445 3.3249 22.69-0.074036 6.3264-19.463 22.423-3.4713s-3.3989-0.24478-3.3249 22.445c0.073975 22.69 19.463 6.3265 3.4714 22.423-15.992 16.097 0.24481-3.399-22.445-3.3249-22.69 0.073975-6.3264 19.463-22.423 3.4713s3.3989 0.24481 3.3248-22.445c-0.074036-22.69-19.463-6.3263-3.4713-22.423z" fill="#333"/>
    <path d="m525.16 525.43l-0.3959-16.551s34.631-7.4955 52.23-7.7626c21.057-0.31958 41.73 6.0139 62.745 7.3873 10.967 0.71692 32.969 0.43967 32.969 0.43967s11.062 2.2781 11.045 10.224c-0.01709 7.9455-11.322 9.6809-11.322 9.6809s-21.117-1.3144-31.671-0.92261c-21.204 0.78748-42.109 7.2919-63.315 6.5676-17.678-0.60364-52.286-9.063-52.286-9.063z" fill="#ccc"/>
    <g fill="#333">
     <path d="m538.79 511.12c3.4127-2.7485 8.4075-2.21 11.156 1.2028 2.7486 3.4128 2.21 8.4076-1.2027 11.156-3.4128 2.7486-8.4076 2.2102-11.156-1.2026-2.7485-3.4128-2.21-8.4076 1.2028-11.156z"/>
     <path d="m671.95 515.33c1.8837-1.5171 4.5792-1.2962 6.0204 0.49341 1.4413 1.7897 1.0826 4.4702-0.80109 5.9873-1.884 1.5173-4.5794 1.2964-6.0207-0.49329-1.4413-1.7896-1.0826-4.4702 0.80133-5.9874z"/>
    </g>
   </g>
  </g>
 </g>
 <text x="592" y="211" font-family="serif" font-size="24" stroke-width="0" text-anchor="middle"/>
 <g stroke-linecap="round" stroke-linejoin="round">
  <path d="m529.49 527.91l-272.64-29.113 6.4695-16.174 261.55 26.802 4.6211 18.484z" fill="#f00" stroke="#000" stroke-width="2"/>
  <path d="m542.88 452.94c-110.79 2.8359-198.67 8.7984-296.25 9.375-10.022 0.059204-20.104 11.867-20.625 21.875-0.51823 9.9452 8.415 19.661 18.125 23.75 18.944 7.9765 32.118 13.941 51.06 25.458 4.4646 2.7144 8.2949 7.8407 7.2254 13.217-1.0695 5.3758-6.1814 9.8711-10.786 13.201-17.657 12.768-39.224 16.452-61.029 23.422-6.2154 1.9868-9.8539 10.13-7.721 15.953 2.133 5.8229 10.956 8.5584 16.25 8.125 102.64-8.403 199.38-15.349 306.25-25.625 29.92-2.8769 64.103-24.319 62.5-65-1.515-38.443-34.662-64.526-65-63.75z" fill="none" opacity=".645" stroke="#666" stroke-width="5"/>
 </g>
</svg>